<svg width="241" height="93" viewBox="0 0 241 93" fill="none" xmlns="http://www.w3.org/2000/svg">
<path d="M69.2188 23.5315C69.0521 23.2398 69.8438 22.219 71.5938 20.469C73.3646 18.6982 74.25 17.3961 74.25 16.5627C74.25 15.9586 74.1458 15.594 73.9375 15.469C73.7292 15.3232 73.1354 15.2502 72.1562 15.2502C70.7396 15.2502 68.7604 15.6669 66.2188 16.5002C64.1146 17.1669 60.6562 18.6565 55.8438 20.969C51.0312 23.2815 46.9167 25.4273 43.5 27.4065C39.6458 29.6357 34.7188 32.8232 28.7188 36.969C22.7188 41.1148 19.0104 43.8961 17.5938 45.3127C17.0729 45.8336 16.0312 48.0523 14.4688 51.969C14.0521 53.0315 13.7604 53.7607 13.5938 54.1565C13.4271 54.5523 13.2396 55.1044 13.0312 55.8127C12.8229 56.5002 12.6875 56.9377 12.625 57.1252C12.5833 57.2919 12.5833 57.6148 12.625 58.094C12.6667 58.5523 12.7188 58.8336 12.7812 58.9377C12.8646 59.0419 13.0625 59.3023 13.375 59.719C13.6875 60.1357 13.9479 60.4377 14.1562 60.6252C14.3646 60.7919 14.75 61.1357 15.3125 61.6565C18.7917 64.8648 23.0104 66.6461 27.9688 67.0002C32.9479 67.3544 38.9375 66.3127 45.9375 63.8752C49.125 62.7502 51.1979 62.1044 52.1562 61.9377C52.7604 61.8127 53.125 61.8023 53.25 61.9065C53.3958 61.9898 53.4271 62.2711 53.3438 62.7502C53.2812 63.1877 53 63.5836 52.5 63.9377C52.0208 64.2711 51.0938 64.7086 49.7188 65.2502C41.8854 68.3544 34.8333 69.7398 28.5625 69.4065C22.3125 69.0523 17.2292 66.9898 13.3125 63.219L10.875 60.9065L9.59375 64.1252C6.73958 71.2086 4.71875 77.1461 3.53125 81.9377C2.34375 86.7294 2.26042 89.3232 3.28125 89.719C3.48958 89.7815 3.66667 89.9273 3.8125 90.1565C3.95833 90.3857 4.03125 90.6252 4.03125 90.8752C4.03125 91.2919 3.79167 91.5732 3.3125 91.719C2.85417 91.8857 2.34375 91.8857 1.78125 91.719C1.23958 91.5732 0.864583 91.2919 0.65625 90.8752C0.239583 90.0836 0.09375 88.719 0.21875 86.7815C0.34375 84.844 0.71875 82.7086 1.34375 80.3752C1.94792 78.0836 2.96875 74.8857 4.40625 70.7815C5.86458 66.6565 7.05208 63.5627 7.96875 61.5002C8.63542 59.8544 8.95833 58.0419 8.9375 56.0627C8.875 54.3336 9.125 52.7919 9.6875 51.4377C10.2708 50.0836 11.3333 48.469 12.875 46.594C13.4375 45.9065 14.0625 44.9482 14.75 43.719C15.4375 42.4898 16.0104 41.2711 16.4688 40.0627C17.5104 37.4169 19.4792 31.7711 22.375 23.1252C25.2917 14.4794 27.1667 8.70858 28 5.81274C28.6875 3.43774 29.2396 1.90649 29.6562 1.21899C30.0729 0.531494 30.5521 0.354411 31.0938 0.687744C31.6146 1.02108 31.5208 2.46899 30.8125 5.03149C30.125 7.57316 28.1354 13.7711 24.8438 23.6252C23.2812 28.2919 21.9688 32.2711 20.9062 35.5627C19.8438 38.8336 19.3333 40.469 19.375 40.469C19.4583 40.469 20.6771 39.6044 23.0312 37.8752C30.0938 32.6877 37.7812 27.7919 46.0938 23.1877C54.4062 18.5627 61.1354 15.4482 66.2812 13.844C68.2188 13.2398 69.9688 12.9169 71.5312 12.8752C73.0938 12.8127 74.3021 13.0107 75.1562 13.469C76.0312 13.9273 76.6146 14.5523 76.9062 15.344C77.1979 16.1357 77.0729 17.1148 76.5312 18.2815C75.9896 19.4273 75.0625 20.6461 73.75 21.9377C72.7708 22.8961 71.8542 23.5315 71 23.844C70.1458 24.1357 69.5521 24.0315 69.2188 23.5315ZM71.185 56.844C71.3933 57.3648 71.1954 57.9169 70.5913 58.5002C70.0079 59.0836 68.3725 60.3232 65.685 62.219C62.6433 64.3857 60.3204 65.7607 58.7163 66.344C57.1121 66.9273 55.6225 66.9377 54.2475 66.3752C52.9975 65.8752 52.3413 64.6877 52.2788 62.8127C52.2163 60.9169 52.7579 58.7607 53.9038 56.344C54.6329 54.8023 55.3621 53.5627 56.0913 52.6252C56.8413 51.6669 57.7267 51.0211 58.7475 50.6877C59.81 50.3544 60.6642 50.5419 61.31 51.2502C61.9767 51.9377 62.2163 52.7502 62.0288 53.6877C61.8413 54.6877 61.1433 55.844 59.935 57.1565C58.7267 58.4482 57.685 59.094 56.81 59.094C56.1225 59.094 55.6746 59.2086 55.4663 59.4377C55.2579 59.6461 55.0496 60.2607 54.8413 61.2815C54.6538 62.2607 54.7683 63.0627 55.185 63.6877C55.5183 64.1044 55.8204 64.3336 56.0913 64.3752C56.3621 64.3961 56.935 64.2815 57.81 64.0315C58.9975 63.6982 61.2996 62.2919 64.7163 59.8127C66.0288 58.8544 67.06 58.1252 67.81 57.6252C68.56 57.1044 69.185 56.7398 69.685 56.5315C70.185 56.3023 70.5288 56.2294 70.7163 56.3127C70.9038 56.3752 71.06 56.5523 71.185 56.844ZM57.7788 54.5002C57.0288 55.5836 56.7996 56.1982 57.0913 56.344C57.2996 56.4065 57.6642 56.1982 58.185 55.719C58.9767 54.969 59.3725 54.3752 59.3725 53.9377C59.3725 53.3752 59.185 53.1877 58.81 53.3752C58.4975 53.5211 58.1538 53.8961 57.7788 54.5002ZM87.4638 53.4377C88.4221 53.0836 89.1304 53.0211 89.5888 53.2502C90.0679 53.4586 90.1721 53.8961 89.9013 54.5627C89.6096 55.3336 88.5992 55.8752 86.87 56.1877C85.1617 56.5002 84.0054 56.3544 83.4013 55.7502C83.1304 55.4794 82.9221 55.3752 82.7763 55.4377C82.4429 55.5627 81.5158 56.594 79.995 58.5315C79.5992 59.0523 78.7971 60.094 77.5888 61.6565C75.8179 64.0107 74.5679 65.5419 73.8388 66.2502C73.1304 66.9377 72.4533 67.3127 71.8075 67.3752C71.2033 67.4377 70.7763 67.4065 70.5263 67.2815C70.2763 67.1357 70.0679 66.844 69.9013 66.4065C69.4221 64.969 69.6096 62.1877 70.4638 58.0627C71.0471 55.0836 71.7554 53.5627 72.5888 53.5002C72.7971 53.5002 72.995 53.594 73.1825 53.7815C73.3908 54.0107 73.4638 54.4586 73.4013 55.1252C73.3596 55.7711 73.1929 56.8752 72.9013 58.4377C72.7554 59.1669 72.6304 59.7815 72.5263 60.2815C72.4429 60.7815 72.37 61.2607 72.3075 61.719C72.245 62.1565 72.2033 62.5107 72.1825 62.7815C72.1617 63.0315 72.1721 63.2502 72.2138 63.4377C72.2554 63.6044 72.3075 63.6982 72.37 63.719C72.4533 63.7398 72.5783 63.7086 72.745 63.6252C72.9117 63.5211 73.0888 63.3752 73.2763 63.1877C73.4638 62.9794 73.7033 62.6982 73.995 62.344C74.3075 61.969 74.62 61.5836 74.9325 61.1877C75.2658 60.7711 75.6617 60.2502 76.12 59.6252C77.1408 58.2502 79.1096 55.6148 82.0263 51.719L84.9325 47.844C85.2658 47.4065 85.495 47.1773 85.62 47.1565C85.7658 47.1148 86.0158 47.2607 86.37 47.594C86.7242 47.9482 86.8804 48.2919 86.8388 48.6252C86.8179 48.9586 86.5679 49.7086 86.0888 50.8752C85.4013 52.5419 85.1617 53.4898 85.37 53.719C85.62 53.969 86.3179 53.8752 87.4638 53.4377ZM114.618 56.3127C115.18 56.2502 115.576 56.4586 115.805 56.9377C116.034 57.4169 115.888 57.969 115.368 58.594C114.951 59.0523 114.493 59.5419 113.993 60.0627C113.493 60.5627 112.649 61.3336 111.461 62.3752C110.274 63.4169 109.086 64.3544 107.899 65.1877C106.711 66.0002 105.305 66.7919 103.68 67.5627C102.055 68.3336 100.482 68.8648 98.9613 69.1565C96.7529 69.5732 94.7946 69.2398 93.0863 68.1565C91.3779 67.0523 90.4196 65.5107 90.2113 63.5315C90.0029 61.4482 90.1279 59.2711 90.5863 57.0002C90.9821 55.0836 91.4717 53.6982 92.055 52.844C92.6383 51.9898 93.2529 51.7711 93.8988 52.1877C94.1904 52.3544 94.3363 52.7502 94.3363 53.3752C94.3363 53.9794 94.2008 54.3648 93.93 54.5315C93.6383 54.719 93.305 56.0732 92.93 58.594C92.68 60.1982 92.555 61.3336 92.555 62.0002C92.5758 62.6461 92.7425 63.344 93.055 64.094C93.6383 65.5107 94.7738 66.3023 96.4613 66.469C98.1696 66.6148 99.9508 66.3127 101.805 65.5627C103.68 64.8127 105.399 63.8336 106.961 62.6252C107.94 61.8544 109.034 60.9273 110.243 59.844C111.472 58.7398 112.43 57.8857 113.118 57.2815C113.826 56.6773 114.326 56.3544 114.618 56.3127ZM95.5863 48.3752C95.3571 48.6044 95.0654 48.719 94.7113 48.719C94.3571 48.719 94.055 48.6044 93.805 48.3752C93.5758 48.1252 93.4613 47.8232 93.4613 47.469C93.4613 47.1148 93.5758 46.8232 93.805 46.594C94.055 46.344 94.3571 46.219 94.7113 46.219C95.0654 46.219 95.3571 46.344 95.5863 46.594C95.8363 46.8232 95.9613 47.1148 95.9613 47.469C95.9613 47.8232 95.8363 48.1252 95.5863 48.3752ZM140.177 56.9377C140.469 56.8127 140.75 56.8544 141.021 57.0627C141.313 57.2711 141.469 57.5836 141.49 58.0002C141.532 58.3961 141.365 58.8648 140.99 59.4065C140.427 60.1565 139.344 61.1877 137.74 62.5002C136.157 63.8127 135.084 64.594 134.521 64.844C132.313 65.7607 130.365 65.8023 128.677 64.969C127.907 64.594 127.24 63.8857 126.677 62.844C126.136 61.8023 125.75 60.8648 125.521 60.0315C125.292 59.1773 125.157 58.7502 125.115 58.7502C124.761 58.7502 124.146 59.2086 123.271 60.1252C122.396 61.0419 121.605 62.0523 120.896 63.1565C119 66.1565 117.48 67.7607 116.334 67.969C115.771 68.0732 115.375 67.8023 115.146 67.1565C115 66.8023 115.198 64.8752 115.74 61.3752C116.282 57.8752 116.823 55.0107 117.365 52.7815C117.615 51.844 117.969 51.1877 118.427 50.8127C118.886 50.4377 119.323 50.4482 119.74 50.844C120.032 51.1357 119.865 53.0315 119.24 56.5315C118.594 60.0732 118.271 61.9169 118.271 62.0627C118.271 62.1461 118.459 61.9586 118.834 61.5002C119.084 61.2086 119.375 60.8336 119.709 60.3752C120.625 59.1252 121.73 58.0523 123.021 57.1565C124.334 56.2398 125.355 55.8336 126.084 55.9377C126.542 56.0002 126.886 56.2086 127.115 56.5627C127.344 56.9169 127.594 57.6461 127.865 58.7502C128.573 61.5836 129.875 63.0002 131.771 63.0002C132.521 63.0002 133.375 62.6982 134.334 62.094C135.292 61.4898 136.136 60.8336 136.865 60.1252C137.594 59.3961 138.282 58.6982 138.927 58.0315C139.594 57.3648 140.011 57.0002 140.177 56.9377ZM207.829 71.3127C207.579 71.4169 206.485 71.5627 204.548 71.7502C202.631 71.9169 199.891 72.3336 196.329 73.0002C192.766 73.6461 189.058 74.5732 185.204 75.7815C180.558 77.2398 176.308 79.1357 172.454 81.469C168.62 83.8232 165.339 86.4794 162.61 89.4377C161.214 90.9794 160.298 91.8961 159.86 92.1877C159.443 92.5002 159.016 92.5107 158.579 92.219C158.287 92.0315 158.131 91.8232 158.11 91.594C158.11 91.3648 158.214 90.9794 158.423 90.4377C159.235 88.4169 160.975 84.3336 163.641 78.1877C169.475 64.5211 173.391 55.0836 175.391 49.8752C177.412 44.6669 179.412 38.7502 181.391 32.1252C183.016 26.6669 183.777 23.8336 183.673 23.6252C183.631 23.5211 183.443 23.719 183.11 24.219C183.089 24.2398 183.068 24.2607 183.048 24.2815C182.61 24.9065 182.131 25.1669 181.61 25.0627C181.11 24.9586 180.86 24.5419 180.86 23.8127C180.86 23.5419 181.068 22.9794 181.485 22.1252C181.923 21.2502 182.443 20.344 183.048 19.4065C184.527 16.9482 185.589 14.8544 186.235 13.1252C186.964 11.2711 187.61 10.344 188.173 10.344C188.735 10.344 189.12 10.5107 189.329 10.844C189.62 11.3023 188.6 15.7086 186.266 24.0627C183.954 32.3961 181.756 39.5523 179.673 45.5315C178.027 50.2398 175.902 55.6461 173.298 61.7502C167.027 76.6461 163.891 84.1669 163.891 84.3127C163.891 84.3544 164.048 84.2711 164.36 84.0627C164.673 83.8544 165.11 83.5419 165.673 83.1252C166.256 82.7294 166.85 82.2919 167.454 81.8127C170.35 79.6461 174.568 77.469 180.11 75.2815C185.673 73.094 190.204 71.6669 193.704 71.0002C195.537 70.6461 197.506 70.3336 199.61 70.0627C201.714 69.7711 203.527 69.5419 205.048 69.3752C206.589 69.2086 207.402 69.1148 207.485 69.094C208.006 68.9898 208.381 69.094 208.61 69.4065C208.839 69.6982 208.87 70.0419 208.704 70.4377C208.558 70.8336 208.266 71.1252 207.829 71.3127ZM217.826 59.6252C219.868 57.4169 221.087 56.6252 221.482 57.2502C221.607 57.4586 221.67 57.8023 221.67 58.2815C221.67 58.7607 221.16 59.594 220.139 60.7815C219.139 61.969 218.035 63.0627 216.826 64.0627C215.639 65.0419 214.805 65.5315 214.326 65.5315C213.014 65.5315 212.16 64.969 211.764 63.844C211.368 62.719 211.451 61.1252 212.014 59.0627C212.68 56.7294 212.441 56.4482 211.295 58.219C211.024 58.6357 210.712 59.1565 210.357 59.7815C208.128 63.7815 206.368 66.1252 205.076 66.8127C204.451 67.1669 204.024 67.3544 203.795 67.3752C203.587 67.3752 203.139 67.2398 202.451 66.969C201.722 66.6773 201.253 66.0523 201.045 65.094C200.837 64.1148 200.837 62.5107 201.045 60.2815C201.524 54.8232 202.295 51.3127 203.357 49.7502C203.837 49.0419 204.316 48.9273 204.795 49.4065C205.191 49.8023 205.128 51.2607 204.607 53.7815C204.232 55.5107 203.93 57.2294 203.701 58.9377C203.472 60.6461 203.357 61.9898 203.357 62.969C203.357 63.9273 203.462 64.4586 203.67 64.5627C204.482 64.5627 206.41 61.8544 209.451 56.4377C210.826 54.0211 211.972 52.2711 212.889 51.1877C213.805 50.0836 214.618 49.5315 215.326 49.5315C216.118 49.5315 216.545 50.0107 216.607 50.969C216.67 51.9273 216.368 53.469 215.701 55.594C214.43 59.7607 213.941 62.0627 214.232 62.5002C214.503 62.8961 215.472 62.1877 217.139 60.3752C217.347 60.1461 217.576 59.8961 217.826 59.6252ZM239.324 55.469C239.74 55.3648 240.022 55.469 240.167 55.7815C240.334 56.094 240.355 56.4586 240.23 56.8752C240.126 57.2919 239.938 57.5836 239.667 57.7502C239.459 57.8752 239.136 57.9898 238.699 58.094C238.261 58.1982 237.49 58.4377 236.386 58.8127C235.303 59.1877 233.99 59.7086 232.449 60.3752C230.178 61.3544 228.647 62.094 227.855 62.594C227.084 63.0732 226.397 63.7398 225.792 64.594C224.813 65.969 223.813 66.8752 222.792 67.3127C221.792 67.7294 220.834 67.6565 219.917 67.094C219.334 66.719 218.917 66.2607 218.667 65.719C218.417 65.1773 218.334 64.6461 218.417 64.1252C218.501 63.5836 218.584 63.1669 218.667 62.8752C218.772 62.5836 218.876 62.344 218.98 62.1565C219.188 61.8023 219.47 61.4586 219.824 61.1252C220.178 60.7711 220.501 60.5315 220.792 60.4065C221.522 60.1148 221.886 59.6044 221.886 58.8752C221.907 58.0836 222.417 56.8544 223.417 55.1877C224.438 53.5211 225.355 52.3961 226.167 51.8127C227.292 51.0002 228.209 50.5627 228.917 50.5002C229.647 50.4377 230.272 50.7086 230.792 51.3127C231.105 51.6669 231.313 51.9482 231.417 52.1565C231.542 52.344 231.636 52.7086 231.699 53.2502C231.761 53.7919 231.678 54.4377 231.449 55.1877C231.345 55.6669 231.188 56.1669 230.98 56.6877C230.792 57.2086 230.636 57.6148 230.511 57.9065C230.386 58.1982 230.324 58.3544 230.324 58.3752C230.345 58.3961 231.011 58.1877 232.324 57.7502C233.636 57.3127 235.042 56.844 236.542 56.344C238.063 55.844 238.99 55.5523 239.324 55.469ZM222.824 64.1252C223.24 63.6877 223.49 63.3961 223.574 63.2502C223.657 63.1044 223.667 62.9794 223.605 62.8752C223.542 62.7711 223.324 62.6252 222.949 62.4377C222.553 62.2086 222.251 62.1252 222.042 62.1877C221.855 62.2294 221.657 62.4482 221.449 62.844C221.261 63.219 221.115 63.594 221.011 63.969C220.928 64.344 220.907 64.6565 220.949 64.9065C221.011 65.1565 221.136 65.2815 221.324 65.2815C221.636 65.2815 222.136 64.8961 222.824 64.1252ZM227.199 57.9065C228.178 56.219 228.667 55.0107 228.667 54.2815C228.667 53.8023 228.615 53.5315 228.511 53.469C228.407 53.4065 228.147 53.5002 227.73 53.7502C227.188 54.1044 226.48 55.0315 225.605 56.5315C224.73 58.0315 224.292 59.0836 224.292 59.6877C224.292 60.4169 224.563 60.6461 225.105 60.3752C225.751 60.0627 226.449 59.2398 227.199 57.9065Z" fill="#AAAAAA"/>
</svg>
